{
	"asset":{
		"generator":"Khronos glTF Blender I/O v3.6.27",
		"version":"2.0"
	},
	"scene":0,
	"scenes":[
		{
			"name":"Scene",
			"nodes":[
				7
			]
		}
	],
	"nodes":[
		{
			"name":"head",
			"rotation":[
				6.699023913370183e-08,
				5.338673503274549e-08,
				0.0022321264259517193,
				0.9999974966049194
			],
			"scale":[
				1,
				0.9999998807907104,
				1
			],
			"translation":[
				-1.7555096265553516e-11,
				0.5881003737449646,
				6.327688373275464e-12
			]
		},
		{
			"name":"arm_left",
			"rotation":[
				-2.6091208837897284e-07,
				-6.661391438456121e-08,
				0.9999969005584717,
				0.0024999375455081463
			],
			"scale":[
				0.9999999403953552,
				0.9999998807907104,
				1
			],
			"translation":[
				0.2673455476760864,
				0.5920031666755676,
				1.750152023305418e-08
			]
		},
		{
			"name":"leg_left",
			"rotation":[
				-2.609139073683764e-07,
				-6.668849295010659e-08,
				0.9999969005584717,
				0.002499956637620926
			],
			"scale":[
				0.9999999403953552,
				0.9999998807907104,
				1
			],
			"translation":[
				0.08976564556360245,
				-0.07733625173568726,
				-8.366485104716048e-08
			]
		},
		{
			"name":"leg_right",
			"rotation":[
				-2.6091208837897284e-07,
				-6.668850716096131e-08,
				0.9999969005584717,
				0.002499956637620926
			],
			"scale":[
				0.9999999403953552,
				0.9999998807907104,
				1
			],
			"translation":[
				-0.08781422674655914,
				-0.07733625173568726,
				-9.495859387698147e-08
			]
		},
		{
			"name":"arm_right",
			"rotation":[
				-2.6091208837897284e-07,
				-6.661391438456121e-08,
				0.9999969005584717,
				0.0024999757297337055
			],
			"scale":[
				0.9999999403953552,
				0.9999998807907104,
				1
			],
			"translation":[
				-0.26929694414138794,
				0.5920031666755676,
				-1.6618962206393917e-08
			]
		},
		{
			"children":[
				0,
				1,
				2,
				3,
				4
			],
			"name":"torso",
			"rotation":[
				0,
				-1,
				0,
				1.9470718370939721e-07
			],
			"translation":[
				-0.00061414873925969,
				0.5003066658973694,
				0.0005528187029995024
			]
		},
		{
			"mesh":0,
			"name":"cube_guy",
			"skin":0
		},
		{
			"children":[
				6,
				5
			],
			"name":"Armature"
		}
	],
	"animations":[
		{
			"channels":[
				{
					"sampler":0,
					"target":{
						"node":5,
						"path":"translation"
					}
				},
				{
					"sampler":1,
					"target":{
						"node":5,
						"path":"rotation"
					}
				},
				{
					"sampler":2,
					"target":{
						"node":5,
						"path":"scale"
					}
				},
				{
					"sampler":3,
					"target":{
						"node":0,
						"path":"translation"
					}
				},
				{
					"sampler":4,
					"target":{
						"node":0,
						"path":"rotation"
					}
				},
				{
					"sampler":5,
					"target":{
						"node":0,
						"path":"scale"
					}
				},
				{
					"sampler":6,
					"target":{
						"node":1,
						"path":"translation"
					}
				},
				{
					"sampler":7,
					"target":{
						"node":1,
						"path":"rotation"
					}
				},
				{
					"sampler":8,
					"target":{
						"node":1,
						"path":"scale"
					}
				},
				{
					"sampler":9,
					"target":{
						"node":2,
						"path":"translation"
					}
				},
				{
					"sampler":10,
					"target":{
						"node":2,
						"path":"rotation"
					}
				},
				{
					"sampler":11,
					"target":{
						"node":2,
						"path":"scale"
					}
				},
				{
					"sampler":12,
					"target":{
						"node":3,
						"path":"translation"
					}
				},
				{
					"sampler":13,
					"target":{
						"node":3,
						"path":"rotation"
					}
				},
				{
					"sampler":14,
					"target":{
						"node":3,
						"path":"scale"
					}
				},
				{
					"sampler":15,
					"target":{
						"node":4,
						"path":"translation"
					}
				},
				{
					"sampler":16,
					"target":{
						"node":4,
						"path":"rotation"
					}
				},
				{
					"sampler":17,
					"target":{
						"node":4,
						"path":"scale"
					}
				}
			],
			"name":"idle",
			"samplers":[
				{
					"input":8,
					"interpolation":"STEP",
					"output":9
				},
				{
					"input":8,
					"interpolation":"STEP",
					"output":10
				},
				{
					"input":8,
					"interpolation":"STEP",
					"output":11
				},
				{
					"input":8,
					"interpolation":"STEP",
					"output":12
				},
				{
					"input":13,
					"interpolation":"LINEAR",
					"output":14
				},
				{
					"input":8,
					"interpolation":"STEP",
					"output":15
				},
				{
					"input":8,
					"interpolation":"STEP",
					"output":16
				},
				{
					"input":8,
					"interpolation":"STEP",
					"output":17
				},
				{
					"input":8,
					"interpolation":"STEP",
					"output":18
				},
				{
					"input":8,
					"interpolation":"STEP",
					"output":19
				},
				{
					"input":8,
					"interpolation":"STEP",
					"output":20
				},
				{
					"input":8,
					"interpolation":"STEP",
					"output":21
				},
				{
					"input":8,
					"interpolation":"STEP",
					"output":22
				},
				{
					"input":8,
					"interpolation":"STEP",
					"output":23
				},
				{
					"input":8,
					"interpolation":"STEP",
					"output":24
				},
				{
					"input":8,
					"interpolation":"STEP",
					"output":25
				},
				{
					"input":8,
					"interpolation":"STEP",
					"output":26
				},
				{
					"input":8,
					"interpolation":"STEP",
					"output":27
				}
			]
		},
		{
			"channels":[
				{
					"sampler":0,
					"target":{
						"node":5,
						"path":"translation"
					}
				},
				{
					"sampler":1,
					"target":{
						"node":5,
						"path":"rotation"
					}
				},
				{
					"sampler":2,
					"target":{
						"node":5,
						"path":"scale"
					}
				},
				{
					"sampler":3,
					"target":{
						"node":0,
						"path":"translation"
					}
				},
				{
					"sampler":4,
					"target":{
						"node":0,
						"path":"rotation"
					}
				},
				{
					"sampler":5,
					"target":{
						"node":0,
						"path":"scale"
					}
				},
				{
					"sampler":6,
					"target":{
						"node":1,
						"path":"translation"
					}
				},
				{
					"sampler":7,
					"target":{
						"node":1,
						"path":"rotation"
					}
				},
				{
					"sampler":8,
					"target":{
						"node":1,
						"path":"scale"
					}
				},
				{
					"sampler":9,
					"target":{
						"node":2,
						"path":"translation"
					}
				},
				{
					"sampler":10,
					"target":{
						"node":2,
						"path":"rotation"
					}
				},
				{
					"sampler":11,
					"target":{
						"node":2,
						"path":"scale"
					}
				},
				{
					"sampler":12,
					"target":{
						"node":3,
						"path":"translation"
					}
				},
				{
					"sampler":13,
					"target":{
						"node":3,
						"path":"rotation"
					}
				},
				{
					"sampler":14,
					"target":{
						"node":3,
						"path":"scale"
					}
				},
				{
					"sampler":15,
					"target":{
						"node":4,
						"path":"translation"
					}
				},
				{
					"sampler":16,
					"target":{
						"node":4,
						"path":"rotation"
					}
				},
				{
					"sampler":17,
					"target":{
						"node":4,
						"path":"scale"
					}
				}
			],
			"name":"walk",
			"samplers":[
				{
					"input":28,
					"interpolation":"STEP",
					"output":29
				},
				{
					"input":28,
					"interpolation":"STEP",
					"output":30
				},
				{
					"input":28,
					"interpolation":"STEP",
					"output":31
				},
				{
					"input":28,
					"interpolation":"STEP",
					"output":32
				},
				{
					"input":28,
					"interpolation":"STEP",
					"output":33
				},
				{
					"input":28,
					"interpolation":"STEP",
					"output":34
				},
				{
					"input":28,
					"interpolation":"STEP",
					"output":35
				},
				{
					"input":36,
					"interpolation":"LINEAR",
					"output":37
				},
				{
					"input":28,
					"interpolation":"STEP",
					"output":38
				},
				{
					"input":28,
					"interpolation":"STEP",
					"output":39
				},
				{
					"input":36,
					"interpolation":"LINEAR",
					"output":40
				},
				{
					"input":28,
					"interpolation":"STEP",
					"output":41
				},
				{
					"input":28,
					"interpolation":"STEP",
					"output":42
				},
				{
					"input":36,
					"interpolation":"LINEAR",
					"output":43
				},
				{
					"input":28,
					"interpolation":"STEP",
					"output":44
				},
				{
					"input":28,
					"interpolation":"STEP",
					"output":45
				},
				{
					"input":36,
					"interpolation":"LINEAR",
					"output":46
				},
				{
					"input":28,
					"interpolation":"STEP",
					"output":47
				}
			]
		}
	],
	"materials":[
		{
			"doubleSided":true,
			"name":"texture",
			"pbrMetallicRoughness":{
				"baseColorTexture":{
					"index":0
				},
				"metallicFactor":0,
				"roughnessFactor":0.5
			}
		}
	],
	"meshes":[
		{
			"name":"Cube",
			"primitives":[
				{
					"attributes":{
						"COLOR_0":0,
						"POSITION":1,
						"NORMAL":2,
						"TEXCOORD_0":3,
						"JOINTS_0":4,
						"WEIGHTS_0":5
					},
					"indices":6,
					"material":0
				}
			]
		}
	],
	"textures":[
		{
			"sampler":0,
			"source":0
		}
	],
	"images":[
		{
			"bufferView":7,
			"mimeType":"image/png",
			"name":"cube_guy_uv"
		}
	],
	"skins":[
		{
			"inverseBindMatrices":7,
			"joints":[
				5,
				0,
				1,
				2,
				3,
				4
			],
			"name":"Armature"
		}
	],
	"accessors":[
		{
			"bufferView":0,
			"componentType":5123,
			"count":144,
			"normalized":true,
			"type":"VEC4"
		},
		{
			"bufferView":1,
			"componentType":5126,
			"count":144,
			"max":[
				0.3443826735019684,
				1.5599087476730347,
				0.20566798746585846
			],
			"min":[
				-0.3468393087387085,
				0.004263236187398434,
				-0.20345674455165863
			],
			"type":"VEC3"
		},
		{
			"bufferView":2,
			"componentType":5126,
			"count":144,
			"type":"VEC3"
		},
		{
			"bufferView":3,
			"componentType":5126,
			"count":144,
			"type":"VEC2"
		},
		{
			"bufferView":4,
			"componentType":5121,
			"count":144,
			"type":"VEC4"
		},
		{
			"bufferView":5,
			"componentType":5126,
			"count":144,
			"type":"VEC4"
		},
		{
			"bufferView":6,
			"componentType":5123,
			"count":216,
			"type":"SCALAR"
		},
		{
			"bufferView":8,
			"componentType":5126,
			"count":6,
			"type":"MAT4"
		},
		{
			"bufferView":9,
			"componentType":5126,
			"count":2,
			"max":[
				5
			],
			"min":[
				0.041666666666666664
			],
			"type":"SCALAR"
		},
		{
			"bufferView":10,
			"componentType":5126,
			"count":2,
			"type":"VEC3"
		},
		{
			"bufferView":11,
			"componentType":5126,
			"count":2,
			"type":"VEC4"
		},
		{
			"bufferView":12,
			"componentType":5126,
			"count":2,
			"type":"VEC3"
		},
		{
			"bufferView":13,
			"componentType":5126,
			"count":2,
			"type":"VEC3"
		},
		{
			"bufferView":14,
			"componentType":5126,
			"count":120,
			"max":[
				5
			],
			"min":[
				0.041666666666666664
			],
			"type":"SCALAR"
		},
		{
			"bufferView":15,
			"componentType":5126,
			"count":120,
			"type":"VEC4"
		},
		{
			"bufferView":16,
			"componentType":5126,
			"count":2,
			"type":"VEC3"
		},
		{
			"bufferView":17,
			"componentType":5126,
			"count":2,
			"type":"VEC3"
		},
		{
			"bufferView":18,
			"componentType":5126,
			"count":2,
			"type":"VEC4"
		},
		{
			"bufferView":19,
			"componentType":5126,
			"count":2,
			"type":"VEC3"
		},
		{
			"bufferView":20,
			"componentType":5126,
			"count":2,
			"type":"VEC3"
		},
		{
			"bufferView":21,
			"componentType":5126,
			"count":2,
			"type":"VEC4"
		},
		{
			"bufferView":22,
			"componentType":5126,
			"count":2,
			"type":"VEC3"
		},
		{
			"bufferView":23,
			"componentType":5126,
			"count":2,
			"type":"VEC3"
		},
		{
			"bufferView":24,
			"componentType":5126,
			"count":2,
			"type":"VEC4"
		},
		{
			"bufferView":25,
			"componentType":5126,
			"count":2,
			"type":"VEC3"
		},
		{
			"bufferView":26,
			"componentType":5126,
			"count":2,
			"type":"VEC3"
		},
		{
			"bufferView":27,
			"componentType":5126,
			"count":2,
			"type":"VEC4"
		},
		{
			"bufferView":28,
			"componentType":5126,
			"count":2,
			"type":"VEC3"
		},
		{
			"bufferView":29,
			"componentType":5126,
			"count":2,
			"max":[
				0.6666666666666666
			],
			"min":[
				0.041666666666666664
			],
			"type":"SCALAR"
		},
		{
			"bufferView":30,
			"componentType":5126,
			"count":2,
			"type":"VEC3"
		},
		{
			"bufferView":31,
			"componentType":5126,
			"count":2,
			"type":"VEC4"
		},
		{
			"bufferView":32,
			"componentType":5126,
			"count":2,
			"type":"VEC3"
		},
		{
			"bufferView":33,
			"componentType":5126,
			"count":2,
			"type":"VEC3"
		},
		{
			"bufferView":34,
			"componentType":5126,
			"count":2,
			"type":"VEC4"
		},
		{
			"bufferView":35,
			"componentType":5126,
			"count":2,
			"type":"VEC3"
		},
		{
			"bufferView":36,
			"componentType":5126,
			"count":2,
			"type":"VEC3"
		},
		{
			"bufferView":37,
			"componentType":5126,
			"count":16,
			"max":[
				0.6666666666666666
			],
			"min":[
				0.041666666666666664
			],
			"type":"SCALAR"
		},
		{
			"bufferView":38,
			"componentType":5126,
			"count":16,
			"type":"VEC4"
		},
		{
			"bufferView":39,
			"componentType":5126,
			"count":2,
			"type":"VEC3"
		},
		{
			"bufferView":40,
			"componentType":5126,
			"count":2,
			"type":"VEC3"
		},
		{
			"bufferView":41,
			"componentType":5126,
			"count":16,
			"type":"VEC4"
		},
		{
			"bufferView":42,
			"componentType":5126,
			"count":2,
			"type":"VEC3"
		},
		{
			"bufferView":43,
			"componentType":5126,
			"count":2,
			"type":"VEC3"
		},
		{
			"bufferView":44,
			"componentType":5126,
			"count":16,
			"type":"VEC4"
		},
		{
			"bufferView":45,
			"componentType":5126,
			"count":2,
			"type":"VEC3"
		},
		{
			"bufferView":46,
			"componentType":5126,
			"count":2,
			"type":"VEC3"
		},
		{
			"bufferView":47,
			"componentType":5126,
			"count":16,
			"type":"VEC4"
		},
		{
			"bufferView":48,
			"componentType":5126,
			"count":2,
			"type":"VEC3"
		}
	],
	"bufferViews":[
		{
			"buffer":0,
			"byteLength":1152,
			"byteOffset":0,
			"target":34962
		},
		{
			"buffer":0,
			"byteLength":1728,
			"byteOffset":1152,
			"target":34962
		},
		{
			"buffer":0,
			"byteLength":1728,
			"byteOffset":2880,
			"target":34962
		},
		{
			"buffer":0,
			"byteLength":1152,
			"byteOffset":4608,
			"target":34962
		},
		{
			"buffer":0,
			"byteLength":576,
			"byteOffset":5760,
			"target":34962
		},
		{
			"buffer":0,
			"byteLength":2304,
			"byteOffset":6336,
			"target":34962
		},
		{
			"buffer":0,
			"byteLength":432,
			"byteOffset":8640,
			"target":34963
		},
		{
			"buffer":0,
			"byteLength":260493,
			"byteOffset":9072
		},
		{
			"buffer":0,
			"byteLength":384,
			"byteOffset":269568
		},
		{
			"buffer":0,
			"byteLength":8,
			"byteOffset":269952
		},
		{
			"buffer":0,
			"byteLength":24,
			"byteOffset":269960
		},
		{
			"buffer":0,
			"byteLength":32,
			"byteOffset":269984
		},
		{
			"buffer":0,
			"byteLength":24,
			"byteOffset":270016
		},
		{
			"buffer":0,
			"byteLength":24,
			"byteOffset":270040
		},
		{
			"buffer":0,
			"byteLength":480,
			"byteOffset":270064
		},
		{
			"buffer":0,
			"byteLength":1920,
			"byteOffset":270544
		},
		{
			"buffer":0,
			"byteLength":24,
			"byteOffset":272464
		},
		{
			"buffer":0,
			"byteLength":24,
			"byteOffset":272488
		},
		{
			"buffer":0,
			"byteLength":32,
			"byteOffset":272512
		},
		{
			"buffer":0,
			"byteLength":24,
			"byteOffset":272544
		},
		{
			"buffer":0,
			"byteLength":24,
			"byteOffset":272568
		},
		{
			"buffer":0,
			"byteLength":32,
			"byteOffset":272592
		},
		{
			"buffer":0,
			"byteLength":24,
			"byteOffset":272624
		},
		{
			"buffer":0,
			"byteLength":24,
			"byteOffset":272648
		},
		{
			"buffer":0,
			"byteLength":32,
			"byteOffset":272672
		},
		{
			"buffer":0,
			"byteLength":24,
			"byteOffset":272704
		},
		{
			"buffer":0,
			"byteLength":24,
			"byteOffset":272728
		},
		{
			"buffer":0,
			"byteLength":32,
			"byteOffset":272752
		},
		{
			"buffer":0,
			"byteLength":24,
			"byteOffset":272784
		},
		{
			"buffer":0,
			"byteLength":8,
			"byteOffset":272808
		},
		{
			"buffer":0,
			"byteLength":24,
			"byteOffset":272816
		},
		{
			"buffer":0,
			"byteLength":32,
			"byteOffset":272840
		},
		{
			"buffer":0,
			"byteLength":24,
			"byteOffset":272872
		},
		{
			"buffer":0,
			"byteLength":24,
			"byteOffset":272896
		},
		{
			"buffer":0,
			"byteLength":32,
			"byteOffset":272920
		},
		{
			"buffer":0,
			"byteLength":24,
			"byteOffset":272952
		},
		{
			"buffer":0,
			"byteLength":24,
			"byteOffset":272976
		},
		{
			"buffer":0,
			"byteLength":64,
			"byteOffset":273000
		},
		{
			"buffer":0,
			"byteLength":256,
			"byteOffset":273064
		},
		{
			"buffer":0,
			"byteLength":24,
			"byteOffset":273320
		},
		{
			"buffer":0,
			"byteLength":24,
			"byteOffset":273344
		},
		{
			"buffer":0,
			"byteLength":256,
			"byteOffset":273368
		},
		{
			"buffer":0,
			"byteLength":24,
			"byteOffset":273624
		},
		{
			"buffer":0,
			"byteLength":24,
			"byteOffset":273648
		},
		{
			"buffer":0,
			"byteLength":256,
			"byteOffset":273672
		},
		{
			"buffer":0,
			"byteLength":24,
			"byteOffset":273928
		},
		{
			"buffer":0,
			"byteLength":24,
			"byteOffset":273952
		},
		{
			"buffer":0,
			"byteLength":256,
			"byteOffset":273976
		},
		{
			"buffer":0,
			"byteLength":24,
			"byteOffset":274232
		}
	],
	"samplers":[
		{
			"magFilter":9729,
			"minFilter":9987
		}
	],
	"buffers":[
		{
			"byteLength":274256,
			"uri":"data:application/octet-stream;base64,"
		}
	]
}
